<svg xmlns="http://www.w3.org/2000/svg" width="104.249" height="105.045" viewBox="0 0 104.249 105.045">
  <g id="Grupo_151051" data-name="Grupo 151051" transform="translate(-1256.517 -2995.914)">
    <g id="Grupo_118196" data-name="Grupo 118196" transform="translate(1256.517 2995.914)">
      <g id="Grupo_118173" data-name="Grupo 118173" transform="translate(0 0)">
        <ellipse id="Elipse_6071" data-name="Elipse 6071" cx="52.124" cy="52.522" rx="52.124" ry="52.522" fill="#fff"/>
      </g>
    </g>
    <g id="Grupo_151050" data-name="Grupo 151050" transform="translate(8721 11491.11)">
      <g id="Grupo_151045" data-name="Grupo 151045" transform="translate(-7444.059 -8470.733)">
        <path id="Trazado_207113" data-name="Trazado 207113" d="M108.957,984.189l-5.433-5.433a4.5,4.5,0,0,0-3.183-1.318H81.952v6.751Z" transform="translate(-61.769 -976.383)" fill="#f85316"/>
        <path id="Trazado_207114" data-name="Trazado 207114" d="M52.9,984.189a3.375,3.375,0,0,1-2.387-.989l-4.444-4.444a4.5,4.5,0,0,0-3.183-1.318H25.626a2.25,2.25,0,0,0-2.25,2.25v48.383a3.376,3.376,0,0,0,3.376,3.376h58.51a3.376,3.376,0,0,0,3.376-3.376V987.565a3.376,3.376,0,0,0-3.376-3.376Z" transform="translate(-22.321 -976.383)" fill="#3d46c2"/>
        <path id="Trazado_207115" data-name="Trazado 207115" d="M95.174,1046.211c-.2,0-.387.013-.578.029a10.117,10.117,0,0,0-17.985-2.251c-.187-.013-.374-.028-.565-.028a7.876,7.876,0,1,0,0,15.753H95.174a6.751,6.751,0,1,0,0-13.5" transform="translate(-52.487 -1018.152)" fill="#fff"/>
        <path id="Trazado_207116" data-name="Trazado 207116" d="M93.129,1042.982a11.171,11.171,0,0,0-19.221-2.251H73.87a8.931,8.931,0,0,0,0,17.863H93a7.806,7.806,0,0,0,.131-15.611m-.131,13.5H73.87a6.821,6.821,0,1,1,0-13.643c.134,0,.279.01.433.022l.056,0a1.054,1.054,0,0,0,.954-.468,9.063,9.063,0,0,1,16.112,2.016,1.054,1.054,0,0,0,1.084.7c.148-.012.321-.025.489-.025a5.7,5.7,0,0,1,0,11.392" transform="translate(-50.312 -1015.976)"/>
        <path id="Trazado_207117" data-name="Trazado 207117" d="M113.038,1050.012a6.631,6.631,0,0,0-2.673.556,1.055,1.055,0,1,0,.844,1.933,4.577,4.577,0,0,1,6.019,2.361,1.055,1.055,0,1,0,1.933-.845,6.684,6.684,0,0,0-6.123-4.005" transform="translate(-80.478 -1025.258)"/>
        <path id="Trazado_207118" data-name="Trazado 207118" d="M90.5,977.8s6.311,5.814,6.723,5.938,7.631,0,7.631,0v-1.485l-6.27-5.508S89.251,975.5,90.5,977.8" transform="translate(-67.447 -975.689)" fill="#75b62f"/>
        <path id="Trazado_207119" data-name="Trazado 207119" d="M83.086,980.959H67.771l-5.124-5.124a5.518,5.518,0,0,0-3.928-1.628H23.451a3.309,3.309,0,0,0-3.305,3.305V1025.9a4.435,4.435,0,0,0,4.43,4.43h58.51a4.435,4.435,0,0,0,4.43-4.43V985.39a4.435,4.435,0,0,0-4.43-4.43m-33.37-4.641a3.423,3.423,0,0,1,2.437,1.009l3.632,3.632H50.729a2.3,2.3,0,0,1-1.641-.68l-3.962-3.962h4.591Zm35.69,49.579a2.323,2.323,0,0,1-2.321,2.321H24.576a2.323,2.323,0,0,1-2.321-2.321V977.513a1.2,1.2,0,0,1,1.2-1.2H40.715a3.423,3.423,0,0,1,2.437,1.009l4.444,4.444a4.4,4.4,0,0,0,3.133,1.3h7.6a1.055,1.055,0,0,0,.748-1.8l0,0-4.95-4.95h4.591a3.423,3.423,0,0,1,2.437,1.009l3.632,3.632H62.833a1.055,1.055,0,1,0,0,2.11H83.086a2.323,2.323,0,0,1,2.321,2.32Z" transform="translate(-20.146 -974.208)"/>
        <path id="Trazado_207120" data-name="Trazado 207120" d="M197.347,1011.825h2.25a1.688,1.688,0,1,0,0-3.376h-2.25a1.688,1.688,0,1,0,0,3.376" transform="translate(-138.344 -997.267)" fill="#dce736"/>
        <path id="Trazado_207121" data-name="Trazado 207121" d="M135.325,1011.825h14.628a1.688,1.688,0,0,0,0-3.376H135.325a1.688,1.688,0,1,0,0,3.376" transform="translate(-96.576 -997.267)" fill="#dce736"/>
      </g>
    </g>
  </g>
</svg>
