<svg xmlns="http://www.w3.org/2000/svg" width="150" height="150" viewBox="0 0 150 150">
  <g id="Grupo_151059" data-name="Grupo 151059" transform="translate(-305.449 -3556.976)">
    <circle id="Elipse_5677" data-name="Elipse 5677" cx="75" cy="75" r="75" transform="translate(305.449 3556.976)" fill="#fff"/>
    <g id="Grupo_151056" data-name="Grupo 151056" transform="translate(4228 11781.569)">
      <path id="Trazado_207204" data-name="Trazado 207204" d="M146.7,7.721a7.287,7.287,0,0,0,6.311,3.643,7.358,7.358,0,0,1,6.31,10.93,7.286,7.286,0,0,0,0,7.286,7.287,7.287,0,0,1-6.31,10.93,7.354,7.354,0,0,0-6.311,3.643,7.286,7.286,0,0,1-12.621,0,7.355,7.355,0,0,0-6.31-3.643,7.287,7.287,0,0,1-6.311-10.93,7.345,7.345,0,0,0,0-7.286,7.287,7.287,0,0,1,6.311-10.93,7.286,7.286,0,0,0,6.31-3.643,7.357,7.357,0,0,1,12.621,0" transform="translate(-3960.871 -8201.879)" fill="#3d46c2"/>
      <path id="Trazado_207205" data-name="Trazado 207205" d="M159.013,70.643V98.92l-12.39-8.831L134.234,98.92V70.643a7.349,7.349,0,0,1,6.081,3.639,7.286,7.286,0,0,0,12.619,0,7.353,7.353,0,0,1,6.079-3.639" transform="translate(-3967.106 -8232.006)" fill="#f85316"/>
      <path id="Trazado_207206" data-name="Trazado 207206" d="M83.763,40.458c.077,0,.154,0,.231,0V55.815a33.2,33.2,0,0,1-3.526,4.357c-5.153,5.38-9.058,10.81-9.074,18.621a4.725,4.725,0,0,1-4.677,4.725H46.333a4.73,4.73,0,0,1-4.677-4.725c-.015-7.815-3.92-13.241-9.073-18.621a33.077,33.077,0,0,1-9.215-24.23,33.5,33.5,0,0,1,34.309-31.9,33,33,0,0,1,20.1,7.681c-.009,0-.018.007-.029.011q.708.592,1.384,1.221a7.375,7.375,0,0,0-2.671,5.649,7.242,7.242,0,0,0,.987,3.632,7.345,7.345,0,0,1,0,7.286,7.288,7.288,0,0,0,6.31,10.932" transform="translate(-3916.866 -8201.824)" fill="#dce736"/>
      <path id="Trazado_207207" data-name="Trazado 207207" d="M83.583,157.679,59.8,162.087a2.98,2.98,0,0,1-2.98-2.98v-6.762a2.98,2.98,0,0,1,2.98-2.98H83.583a2.98,2.98,0,0,1,2.98,2.98V154.7a2.98,2.98,0,0,1-2.98,2.98" transform="translate(-3932.035 -8267.673)" fill="#75b62f"/>
      <path id="Trazado_207208" data-name="Trazado 207208" d="M81.229,177.288H62.158a5.334,5.334,0,0,1-5.334-5.334,2.98,2.98,0,0,1,2.98-2.98l23.779-4.408a2.98,2.98,0,0,1,2.98,2.98v4.408a5.334,5.334,0,0,1-5.334,5.334" transform="translate(-3932.035 -8274.56)" fill="#75b62f"/>
      <path id="Trazado_207209" data-name="Trazado 207209" d="M78.771,195.73h-.442a6.744,6.744,0,0,1-6.744-6.744v-1.16H85.516v1.16A6.745,6.745,0,0,1,78.771,195.73Z" transform="translate(-3938.722 -8285.098)" fill="#75b62f"/>
      <path id="Trazado_207210" data-name="Trazado 207210" d="M156.159,31.347l-8.566,8.566L143.878,36.2a2.2,2.2,0,0,0-3.117,3.117l5.274,5.273a2.2,2.2,0,0,0,3.116,0l10.124-10.124a2.2,2.2,0,0,0-3.117-3.117Z" transform="translate(-3969.771 -8213.909)"/>
      <path id="Trazado_207211" data-name="Trazado 207211" d="M116.255,21.518a9.577,9.577,0,0,0-8.219-14.236,5.1,5.1,0,0,1-4.4-2.541,9.578,9.578,0,0,0-16.438,0,5.1,5.1,0,0,1-4.4,2.542,9.482,9.482,0,0,0-4.416,1.079c-.05-.05-.1-.1-.152-.149A34.977,34.977,0,0,0,56.783.02,35.873,35.873,0,0,0,22.174,23.745a2.2,2.2,0,0,0,4.153,1.478,31.44,31.44,0,0,1,30.307-20.8A30.6,30.6,0,0,1,75.045,11.3a9.531,9.531,0,0,0-.47,10.213,5.235,5.235,0,0,1,0,5.085,9.421,9.421,0,0,0-1.21,5.924,9.592,9.592,0,0,0,7.456,8.112V53.3a31.189,31.189,0,0,1-2.914,3.522c-5.02,5.241-9.669,11.309-9.686,20.141a2.536,2.536,0,0,1-2.473,2.525H57.76V56.217a11.272,11.272,0,0,0,9.051-11.036,2.2,2.2,0,1,0-4.408,0,6.847,6.847,0,0,1-13.693,0,2.2,2.2,0,1,0-4.408,0,11.272,11.272,0,0,0,9.051,11.036V79.489H45.371a2.512,2.512,0,0,1-2.479-2.525c-.018-8.832-4.665-14.9-9.687-20.143a31.005,31.005,0,0,1-7.658-13.743,2.2,2.2,0,1,0-4.27,1.093,35.408,35.408,0,0,0,8.747,15.7c5.069,5.293,8.447,10.226,8.461,17.1a6.924,6.924,0,0,0,1.4,4.165,5.164,5.164,0,0,0-1.4,3.536v6.762a5.153,5.153,0,0,0,.946,2.98,5.153,5.153,0,0,0-.946,2.98,7.546,7.546,0,0,0,7.537,7.537h.6a8.96,8.96,0,0,0,8.886,7.9h.442a8.96,8.96,0,0,0,8.886-7.9h.26a7.546,7.546,0,0,0,7.537-7.537V92.987a5.152,5.152,0,0,0-.946-2.98,5.155,5.155,0,0,0,.946-2.981V84.673a5.163,5.163,0,0,0-1.4-3.537,7.01,7.01,0,0,0,1.4-4.164c.014-6.752,3.275-11.632,8.192-16.817v6.758a2.232,2.232,0,0,0,3.483,1.794l11.109-7.919,11.111,7.92a2.234,2.234,0,0,0,3.483-1.8V40.632A9.59,9.59,0,0,0,116.255,26.6,5.1,5.1,0,0,1,116.255,21.518ZM67.445,83.9a.777.777,0,0,1,.776.776v2.263a.867.867,0,0,1-.776.867c-.132.026-23.915,4.4-23.915,4.4a.777.777,0,0,1-.639-.764V84.673a.777.777,0,0,1,.776-.776Zm-11.5,24.532H55.5a4.548,4.548,0,0,1-4.419-3.5h9.28a4.548,4.548,0,0,1-4.419,3.5M68.222,97.395a3.133,3.133,0,0,1-3.13,3.13H46.021a3.134,3.134,0,0,1-3.13-3.13.777.777,0,0,1,.776-.776c.135,0,23.916-4.4,23.916-4.4a.778.778,0,0,1,.639.764ZM105.6,62.637l-8.907-6.349a2.223,2.223,0,0,0-2.558,0L85.23,62.636V41.467c1.357.742,1.772,1.792,2.672,2.968a9.574,9.574,0,0,0,15.731-1.054,5.108,5.108,0,0,1,1.967-1.912V62.637ZM112.437,28.8a5.132,5.132,0,0,1-4.406,7.624,9.658,9.658,0,0,0-8.214,4.745,5.134,5.134,0,0,1-8.427.564c-2.224-2.907-4.7-5.3-8.6-5.31a5.031,5.031,0,0,1-4.4-2.542,5.12,5.12,0,0,1,0-5.078,9.6,9.6,0,0,0,.032-9.44A5.153,5.153,0,0,1,79.494,12.9a5.033,5.033,0,0,1,3.3-1.212,9.517,9.517,0,0,0,8.219-4.745,5.13,5.13,0,0,1,8.8,0,9.517,9.517,0,0,0,8.219,4.745,5.131,5.131,0,0,1,4.4,7.624A9.516,9.516,0,0,0,112.437,28.8Z" transform="translate(-3915.898 -8200)"/>
      <path id="Trazado_207212" data-name="Trazado 207212" d="M21.131,62.73a2.2,2.2,0,1,0-1.772-2.16,2.219,2.219,0,0,0,1.772,2.16" transform="translate(-3915.061 -8226.453)"/>
    </g>
  </g>
</svg>
