<svg xmlns="http://www.w3.org/2000/svg" width="86.576" height="76.957" viewBox="0 0 86.576 76.957">
  <g id="Grupo_151300" data-name="Grupo 151300" transform="translate(-1506.721 -231.231)">
    <path id="Trazado_207398" data-name="Trazado 207398" d="M92,266.991,78.469,243.52H46.254L32.729,266.991a6.965,6.965,0,0,0,3.486,1.018H88.51A6.965,6.965,0,0,0,92,266.991" transform="translate(1487.647 40.18)" fill="#467bbe" fill-rule="evenodd"/>
    <path id="Trazado_207399" data-name="Trazado 207399" d="M72.1,243.519,85.63,266.99a6.458,6.458,0,0,0,2.29-2.237l10.495-18.111a6.869,6.869,0,0,0,.864-3.123Z" transform="translate(1494.012 40.179)" fill="#e73827" fill-rule="evenodd"/>
    <path id="Trazado_207400" data-name="Trazado 207400" d="M74.345,250.7H101.52a6.552,6.552,0,0,0-.785-3.507l-6.042-10.468L74.46,201.6a6.915,6.915,0,0,0-2.6-2.491L58.238,222.75l8.053,13.975Z" transform="translate(1491.77 32.998)" fill="#f8bb00" fill-rule="evenodd"/>
    <path id="Trazado_207401" data-name="Trazado 207401" d="M60.134,222.871,73.76,199.229a6.475,6.475,0,0,0-3.116-.875H49.626a6.479,6.479,0,0,0-3.117.875Z" transform="translate(1489.875 32.877)" fill="#007d3c" fill-rule="evenodd"/>
    <path id="Trazado_207402" data-name="Trazado 207402" d="M64.263,222.75,50.638,199.107a6.92,6.92,0,0,0-2.6,2.491L27.808,236.725l-6.042,10.468a6.552,6.552,0,0,0-.785,3.507H48.156l8.053-13.975Z" transform="translate(1485.746 32.998)" fill="#1ca64b" fill-rule="evenodd"/>
    <path id="Trazado_207403" data-name="Trazado 207403" d="M48.155,243.519H20.981a6.868,6.868,0,0,0,.863,3.123l10.495,18.111a6.458,6.458,0,0,0,2.29,2.237Z" transform="translate(1485.747 40.179)" fill="#1963ae" fill-rule="evenodd"/>
  </g>
</svg>
