<svg xmlns="http://www.w3.org/2000/svg" width="104.249" height="105.045" viewBox="0 0 104.249 105.045">
  <g id="Grupo_151053" data-name="Grupo 151053" transform="translate(-750.886 -2995.914)">
    <g id="Grupo_118194" data-name="Grupo 118194" transform="translate(750.886 2995.914)">
      <g id="Grupo_118173" data-name="Grupo 118173" transform="translate(0 0)">
        <ellipse id="Elipse_6071" data-name="Elipse 6071" cx="52.124" cy="52.522" rx="52.124" ry="52.522" fill="#fff"/>
      </g>
    </g>
    <g id="Grupo_151048" data-name="Grupo 151048" transform="translate(8221.855 11743.737)">
      <g id="Grupo_151043" data-name="Grupo 151043" transform="translate(-7455 -8734.033)">
        <path id="Trazado_207162" data-name="Trazado 207162" d="M3.022,503.643a11.224,11.224,0,1,1,18.6,8.459.487.487,0,0,0,.072.787l2.115,1.251a.39.39,0,0,1-.2.727l-9.577,0A11.223,11.223,0,0,1,3.022,503.643Z" transform="translate(-1.963 -491.361)" fill="#75b62f"/>
        <path id="Trazado_207163" data-name="Trazado 207163" d="M97.93,533.16H72.468a7.509,7.509,0,0,1-5.778-12.3l.226-.272a12.01,12.01,0,0,0,2.769-7.671V508a15.583,15.583,0,1,1,31.165,0v5.076a12.013,12.013,0,0,0,2.824,7.736A7.509,7.509,0,0,1,97.93,533.16" transform="translate(-42.182 -491.361)" fill="#dce736"/>
        <path id="Trazado_207164" data-name="Trazado 207164" d="M100.451,607.713v16.833H48.22V607.84a9.4,9.4,0,0,1,5.754-8.663l8.43-3.667,2.84-1.234a5.9,5.9,0,0,0,3.548-5.409v-1.09h11.09v1.034a5.9,5.9,0,0,0,3.574,5.422l11.4,4.888a9.4,9.4,0,0,1,5.591,8.592" transform="translate(-31.319 -553.296)" fill="#fff"/>
        <path id="Trazado_207165" data-name="Trazado 207165" d="M87.667,599.526a40.392,40.392,0,0,0,23.864-.224l1.375-3.274-4.187-1.794a5.9,5.9,0,0,1-3.575-5.422v-1.033H94.054v1.089a5.9,5.9,0,0,1-3.547,5.41l-3.391,1.474Z" transform="translate(-56.583 -553.297)" fill="#ffcebf"/>
        <path id="Trazado_207166" data-name="Trazado 207166" d="M165.368,613.32l-8.591-3.682h0v29.107h14.183V621.913a9.4,9.4,0,0,0-5.591-8.593" transform="translate(-101.827 -567.495)" fill="#f85316"/>
        <path id="Trazado_207167" data-name="Trazado 207167" d="M62.4,609.843v29.035H48.221V622.172a9.4,9.4,0,0,1,5.754-8.663Z" transform="translate(-31.32 -567.628)" fill="#f85316"/>
        <path id="Trazado_207168" data-name="Trazado 207168" d="M123.33,573.752h-2.482a2.046,2.046,0,1,1,0-4.091h2.482a2.046,2.046,0,1,1,0,4.091" transform="translate(-77.163 -541.53)" fill="#fff"/>
        <path id="Trazado_207169" data-name="Trazado 207169" d="M122.811,572.682a.986.986,0,1,0,0,1.973h2.482a.986.986,0,1,0,0-1.973Z" transform="translate(-79.126 -543.492)"/>
        <path id="Trazado_207170" data-name="Trazado 207170" d="M120.836,639.9a1.023,1.023,0,1,1-1.023,1.023,1.023,1.023,0,0,1,1.023-1.023" transform="translate(-77.82 -587.148)"/>
        <path id="Trazado_207171" data-name="Trazado 207171" d="M115.344,593.866a9.329,9.329,0,0,0,3.6-.719,5.9,5.9,0,0,1-1.9-4.335v-1.033h-11.09v1.089a5.89,5.89,0,0,1-.516,2.412,9.323,9.323,0,0,0,6.454,2.586Z" transform="translate(-68.483 -553.297)" fill="#ffb09e"/>
        <path id="Trazado_207172" data-name="Trazado 207172" d="M113.277,528.9v9.174a9.358,9.358,0,0,1-9.358,9.358h-3.451a9.358,9.358,0,0,1-9.358-9.358V528.9a6.088,6.088,0,0,1,6.088-6.088h9.991a6.088,6.088,0,0,1,6.088,6.088" transform="translate(-59.176 -511.101)" fill="#ffcebf"/>
        <path id="Trazado_207173" data-name="Trazado 207173" d="M127.571,504.733c.238-3,3.107-4.987,5.854-6.017a15.574,15.574,0,0,1,7.585,13.375v1.071c-.251.053-.5.1-.748.136a12.613,12.613,0,0,1-3.682,0c-5.672-.756-9.3-4.945-9.009-8.565" transform="translate(-82.848 -495.45)" fill="#dce736"/>
        <path id="Trazado_207174" data-name="Trazado 207174" d="M94.052,492.42a15.513,15.513,0,0,1,9.374,3.134A27.459,27.459,0,0,1,83.037,509.21H78.47V508A15.582,15.582,0,0,1,94.052,492.42" transform="translate(-50.967 -491.361)" fill="#dce736"/>
        <path id="Trazado_207175" data-name="Trazado 207175" d="M123.33,573.752h-2.482a2.046,2.046,0,1,1,0-4.091h2.482a2.046,2.046,0,1,1,0,4.091" transform="translate(-77.163 -541.53)" fill="#75b62f"/>
        <path id="Trazado_207176" data-name="Trazado 207176" d="M106.3,655.651H72.4l-1.87-17.642a2.119,2.119,0,0,1,2.107-2.342h33.434a2.119,2.119,0,0,1,2.106,2.342Z" transform="translate(-45.799 -584.401)" fill="#3d46c2"/>
        <path id="Trazado_207177" data-name="Trazado 207177" d="M71.25,691.78H1.059a1.059,1.059,0,1,1,0-2.118H71.25a1.059,1.059,0,1,1,0,2.118" transform="translate(0 -619.471)" fill="#c9bfc8"/>
        <path id="Trazado_207178" data-name="Trazado 207178" d="M118.759,655.714a2.966,2.966,0,1,1-2.966,2.966,2.966,2.966,0,0,1,2.966-2.966" transform="translate(-75.208 -597.422)" fill="#c9bfc8"/>
        <path id="Trazado_207179" data-name="Trazado 207179" d="M16.52,502.74a1.059,1.059,0,1,0-1.059-1.059,1.059,1.059,0,0,0,1.059,1.059m-8.474,0a1.059,1.059,0,1,0-1.059-1.059,1.059,1.059,0,0,0,1.059,1.059m4.237,0a1.059,1.059,0,1,0-1.059-1.059,1.059,1.059,0,0,0,1.059,1.059m-.232,11.221h.02l9.576,0h0a1.449,1.449,0,0,0,.738-2.7l-1.456-.862A12.283,12.283,0,1,0,0,501.681a12.415,12.415,0,0,0,12.051,12.28m-6.9-19.519a10.091,10.091,0,0,1,7.285-2.924,10.164,10.164,0,0,1,6.53,17.824,1.546,1.546,0,0,0,.229,2.5l.011.006-7.122,0a10.164,10.164,0,0,1-6.933-17.4Zm66.1,65.147H70.191V543.815a10.47,10.47,0,0,0-6.233-9.566l-5.582-2.393A8.363,8.363,0,0,0,61.96,529.6a8.776,8.776,0,0,0,2.37-5.954,8.427,8.427,0,0,0-2.029-5.48,10.966,10.966,0,0,1-2.574-7.054v-5.076a16.642,16.642,0,0,0-33.284,0v4.911a11.447,11.447,0,0,1-2.751,7.266,8.579,8.579,0,0,0,4.094,13.677l-5.543,2.41a10.437,10.437,0,0,0-6.4,9.64v12.469a1.059,1.059,0,1,0,2.118,0V543.943a8.327,8.327,0,0,1,5.117-7.692l6.948-3.021v6.376H26.833a3.177,3.177,0,0,0-3.16,3.512l1.746,16.472H1.059a1.059,1.059,0,1,0,0,2.118H71.25a1.059,1.059,0,1,0,0-2.118ZM60.681,519.533a6.334,6.334,0,0,1,1.531,4.116,6.635,6.635,0,0,1-1.794,4.5,6.341,6.341,0,0,1-4.67,1.988H54.367l-1.813-.777a4.834,4.834,0,0,1-2.889-3.812,10.426,10.426,0,0,0,5.5-9.178v-7.963q.465.031.928.032a13.489,13.489,0,0,0,1.52-.086v2.76A13.086,13.086,0,0,0,60.681,519.533ZM43.343,536.255a39.235,39.235,0,0,1-11.2-1.425v-2.522l.306-.133.007,0,1.889-.822a6.956,6.956,0,0,0,4.041-4.976,10.385,10.385,0,0,0,2.9.415h3.452a10.385,10.385,0,0,0,2.914-.418,6.951,6.951,0,0,0,4.062,4.938l2.017.864,0,0,.15.064v2.384A39.325,39.325,0,0,1,43.343,536.255Zm10.547.572v2.778H32.144v-2.582a41.4,41.4,0,0,0,10.509,1.356q.363,0,.726-.006A41.445,41.445,0,0,0,53.889,536.827Zm3.72-30.608a11.766,11.766,0,0,1-8.472-2.143,1.059,1.059,0,1,0-1.3,1.675,12.8,12.8,0,0,0,5.2,2.364v5.766a7.748,7.748,0,0,1-2.353,3.179,8.118,8.118,0,0,1-1.757,1.1,3.107,3.107,0,0,0-2.764-1.694H43.685a3.1,3.1,0,1,0,0,6.21h2.482a3.11,3.11,0,0,0,3-2.32,18.887,18.887,0,0,0,3.728-2.467,8.31,8.31,0,0,1-8.156,6.776H41.291a8.308,8.308,0,0,1-8.3-8.3v-8.188a28.405,28.405,0,0,0,10.113-3.625,28.776,28.776,0,0,0,9.627-9.374A14.514,14.514,0,0,1,57.609,506.219ZM47.154,519.578a.988.988,0,0,1-.986.984H43.685a.986.986,0,0,1,0-1.973h2.483a.987.987,0,0,1,.986.983ZM28.562,506.039a14.528,14.528,0,0,1,22.484-12.15,26.673,26.673,0,0,1-9.019,8.847A26.337,26.337,0,0,1,32,506.187H28.562ZM24.448,526.43a6.392,6.392,0,0,1,.874-6.859,13.53,13.53,0,0,0,3.241-8.621v-2.644h2.312v8.065a10.426,10.426,0,0,0,5.5,9.181,4.837,4.837,0,0,1-2.873,3.855l-1.682.731H30.286A6.392,6.392,0,0,1,24.448,526.43Zm36.873,16.465-1.77,16.695h-32l-1.77-16.695a1.059,1.059,0,0,1,1.053-1.171H60.267a1.06,1.06,0,0,1,1.054,1.171m6.752,16.695H61.681l1.746-16.471a3.178,3.178,0,0,0-3.16-3.513h-4.26v-4.187c0-.013,0-.026,0-.038v-2.234l7.1,3.045a8.347,8.347,0,0,1,4.961,7.624ZM43.55,546.631a4.025,4.025,0,1,0,4.025,4.025,4.03,4.03,0,0,0-4.025-4.025m0,5.932a1.907,1.907,0,1,1,1.907-1.907,1.909,1.909,0,0,1-1.907,1.907" transform="translate(0 -489.398)"/>
        <path id="Trazado_207180" data-name="Trazado 207180" d="M108.98,552.427a.848.848,0,0,0-.848.848v1.307a.848.848,0,0,0,1.7,0v-1.307a.848.848,0,0,0-.848-.848" transform="translate(-70.232 -530.336)"/>
        <path id="Trazado_207181" data-name="Trazado 207181" d="M107.751,544.217a3.892,3.892,0,0,0-5.118,0,.848.848,0,1,0,1.03,1.347,2.232,2.232,0,0,1,3.059,0,.848.848,0,1,0,1.029-1.347" transform="translate(-66.445 -524.38)"/>
        <path id="Trazado_207182" data-name="Trazado 207182" d="M135.987,552.125a.848.848,0,0,0-.848.848v1.307a.848.848,0,1,0,1.7,0v-1.307a.848.848,0,0,0-.848-.848" transform="translate(-87.774 -530.14)"/>
        <path id="Trazado_207183" data-name="Trazado 207183" d="M134.758,543.915a3.892,3.892,0,0,0-5.118,0,.848.848,0,0,0,1.03,1.347,2.232,2.232,0,0,1,3.059,0,.848.848,0,1,0,1.029-1.347" transform="translate(-83.986 -524.184)"/>
        <path id="Trazado_207184" data-name="Trazado 207184" d="M111.333,571.859a9.4,9.4,0,0,1,0-1.213,5.477,5.477,0,0,1-2.4-1.275,1.059,1.059,0,0,0-1.426,1.567,7.59,7.59,0,0,0,3.837,1.877c-.013-.32,0-.644-.008-.955" transform="translate(-69.6 -541.161)"/>
      </g>
    </g>
  </g>
</svg>
