<svg xmlns="http://www.w3.org/2000/svg" width="104.249" height="105.045" viewBox="0 0 104.249 105.045">
  <g id="Grupo_151055" data-name="Grupo 151055" transform="translate(-245.255 -2995.914)">
    <g id="Grupo_118192" data-name="Grupo 118192" transform="translate(245.255 2995.914)">
      <g id="Grupo_118173" data-name="Grupo 118173" transform="translate(0 0)">
        <ellipse id="Elipse_6071" data-name="Elipse 6071" cx="52.124" cy="52.522" rx="52.124" ry="52.522" fill="#fff"/>
      </g>
    </g>
    <g id="Grupo_151046" data-name="Grupo 151046" transform="translate(7695.141 12004.341)">
      <g id="Grupo_151041" data-name="Grupo 151041" transform="translate(-7440.362 -8999.826)">
        <path id="Trazado_207146" data-name="Trazado 207146" d="M93.063,41.945A24.2,24.2,0,0,0,81.67,87.5v5.71h22.785V87.5A24.2,24.2,0,0,0,93.063,41.945Z" transform="translate(-50.343 -23.416)" fill="#dce736"/>
        <path id="Trazado_207147" data-name="Trazado 207147" d="M101.322,174.112h19.669l-2.683,7.12H104.067Z" transform="translate(-68.468 -97.196)" fill="#75b62f"/>
        <path id="Trazado_207148" data-name="Trazado 207148" d="M101.866,61.287l-.99,4.948a11.39,11.39,0,0,0-3.521,2.036l-4.781-1.619-2.848,4.934,3.788,3.329a10.969,10.969,0,0,0,0,4.074l-3.785,3.326,2.848,4.934,4.77-1.613a11.4,11.4,0,0,0,3.532,2.025l.99,4.953h5.7l.99-4.948a11.389,11.389,0,0,0,3.521-2.036l4.781,1.619,2.848-4.934-3.788-3.329a10.968,10.968,0,0,0,0-4.074l3.785-3.326-2.848-4.934-4.77,1.613a11.393,11.393,0,0,0-3.532-2.025l-.99-4.954Zm2.848,11.393a4.272,4.272,0,1,1-4.272,4.272,4.272,4.272,0,0,1,4.272-4.272" transform="translate(-61.995 -34.213)" fill="#3d46c2"/>
        <rect id="Rectángulo_299147" data-name="Rectángulo 299147" width="22.785" height="7.12" transform="translate(31.327 69.796)" fill="#75b62f"/>
        <path id="Trazado_207149" data-name="Trazado 207149" d="M69.647,0a1.421,1.421,0,0,0-1.4,1.438V9.986a1.424,1.424,0,1,0,2.848,0V1.439A1.423,1.423,0,0,0,69.647,0ZM48.959,5.53a1.424,1.424,0,0,0-1.165,2.155l4.267,7.4a1.424,1.424,0,1,0,2.47-1.418l-4.278-7.4a1.424,1.424,0,0,0-1.293-.734m41.386,0a1.42,1.42,0,0,0-1.26.734l-4.269,7.4a1.425,1.425,0,1,0,2.461,1.418l4.278-7.4a1.425,1.425,0,0,0-1.21-2.155M56.856,69.8v7.118a1.423,1.423,0,0,0,1.43,1.418h.542l2.394,6.211a1.425,1.425,0,0,0,1.33.912H76.792a1.424,1.424,0,0,0,1.321-.9l.57-1.424a1.424,1.424,0,1,0-2.645-1.057l-.212.529h-12.3l-1.647-4.275H81.064a1.423,1.423,0,0,0,1.418-1.418v-12a25.625,25.625,0,1,0-24.871.426,1.424,1.424,0,1,0,1.335-2.512,22.79,22.79,0,1,1,21.444,0,1.426,1.426,0,0,0-.745,1.252v4.289l-21.36,0a1.373,1.373,0,0,0-1.43,1.427ZM33.8,20.655a1.424,1.424,0,0,0-.609,2.67l7.4,4.269a1.427,1.427,0,1,0,1.43-2.47l-7.4-4.269a1.423,1.423,0,0,0-.82-.2m71.555,0a1.419,1.419,0,0,0-.629.2l-7.4,4.269a1.424,1.424,0,1,0,1.418,2.47l7.4-4.269a1.425,1.425,0,0,0-.79-2.67m-38.536,5a1.424,1.424,0,1,0,0,2.848h4.531l.767,3.8a1.423,1.423,0,0,0,.913,1.062,10.007,10.007,0,0,1,3.093,1.777A1.423,1.423,0,0,0,77.5,35.4l3.658-1.24,1.683,2.912-2.9,2.556a1.424,1.424,0,0,0-.465,1.324,10.725,10.725,0,0,1,0,3.563,1.424,1.424,0,0,0,.453,1.324L82.841,48.4l-1.683,2.912L77.49,50.07a1.423,1.423,0,0,0-1.377.262,9.983,9.983,0,0,1-3.079,1.788,1.422,1.422,0,0,0-.915,1.06l-.768,3.8H67.986l-.756-3.8a1.423,1.423,0,0,0-.924-1.062,9.99,9.99,0,0,1-3.093-1.777,1.422,1.422,0,0,0-1.365-.253l-3.669,1.24L56.5,48.407l2.912-2.564a1.423,1.423,0,0,0,.464-1.324,9.489,9.489,0,0,1,0-3.552,1.425,1.425,0,0,0-.464-1.335L56.5,37.076l1.683-2.912,3.68,1.24a1.421,1.421,0,0,0,1.377-.262,9.919,9.919,0,0,1,2-1.315,1.426,1.426,0,1,0-1.271-2.553,13.331,13.331,0,0,0-1.919,1.191L57.99,31.1a1.423,1.423,0,0,0-1.691.629l-2.851,4.942a1.421,1.421,0,0,0,.295,1.775l3.21,2.82a9.958,9.958,0,0,0-.005,2.954l-3.2,2.815a1.426,1.426,0,0,0-.3,1.788L56.3,53.75a1.422,1.422,0,0,0,1.691.64l4.044-1.374a12.43,12.43,0,0,0,2.545,1.466l.843,4.2a1.425,1.425,0,0,0,1.4,1.146h5.7a1.425,1.425,0,0,0,1.4-1.146l.834-4.186a12.383,12.383,0,0,0,2.542-1.477l4.066,1.374a1.424,1.424,0,0,0,1.683-.639l2.848-4.931a1.427,1.427,0,0,0-.284-1.789l-3.212-2.823a10.838,10.838,0,0,0-.005-2.932l3.218-2.834a1.42,1.42,0,0,0,.284-1.774l-2.84-4.943a1.422,1.422,0,0,0-1.691-.629l-4.05,1.363A12.041,12.041,0,0,0,74.767,31l-.851-4.2a1.425,1.425,0,0,0-1.4-1.146Zm2.848,11.4a5.7,5.7,0,1,0,5.7,5.7,5.72,5.72,0,0,0-5.7-5.7m0,2.848a2.85,2.85,0,1,1-2.848,2.848A2.827,2.827,0,0,1,69.669,39.893ZM28.377,41.312a1.424,1.424,0,1,0,0,2.848h8.547a1.424,1.424,0,1,0,0-2.848Zm74.048,0a1.424,1.424,0,1,0,0,2.848h8.547a1.424,1.424,0,1,0,0-2.848ZM41.224,57.68a1.43,1.43,0,0,0-.631.2l-7.4,4.278a1.424,1.424,0,1,0,1.43,2.458l7.4-4.267a1.424,1.424,0,0,0-.8-2.67m56.7,0a1.424,1.424,0,0,0-.6,2.67l7.4,4.267a1.423,1.423,0,1,0,1.418-2.458l-7.4-4.278A1.427,1.427,0,0,0,97.925,57.68ZM59.7,71.22H79.646v4.267H59.7Z" transform="translate(-26.953 0)"/>
      </g>
    </g>
  </g>
</svg>
