<svg xmlns="http://www.w3.org/2000/svg" width="150" height="150" viewBox="0 0 150 150">
  <g id="Grupo_151060" data-name="Grupo 151060" transform="translate(-725.449 -3556.976)">
    <circle id="Elipse_5677" data-name="Elipse 5677" cx="75" cy="75" r="75" transform="translate(725.449 3556.976)" fill="#fff"/>
    <g id="Grupo_151057" data-name="Grupo 151057" transform="translate(4650.563 11620.341)">
      <path id="Trazado_207192" data-name="Trazado 207192" d="M109.131,316.851v17h-45.9l-22.1-22.1h-23.8v-17a3.411,3.411,0,0,1,3.4-3.4h20.4l22.1,22.1h42.5a3.4,3.4,0,0,1,3.349,2.856,2.814,2.814,0,0,1,.051.544" transform="translate(-3914.396 -8322.217)" fill="#dce736"/>
      <path id="Trazado_207193" data-name="Trazado 207193" d="M104.671,278.456h-64.6a3.41,3.41,0,0,0-3.4,3.4v23.8h13.6l22.1,22.1h35.7v-45.9a3.41,3.41,0,0,0-3.4-3.4" transform="translate(-3923.537 -8316.124)" fill="#fff"/>
      <path id="Trazado_207194" data-name="Trazado 207194" d="M109.131,352.135v45.9a3.411,3.411,0,0,1-3.4,3.4h-85a3.411,3.411,0,0,1-3.4-3.4v-68h23.8l22.1,22.1Z" transform="translate(-3914.396 -8340.5)" fill="#dce736"/>
      <path id="Trazado_207195" data-name="Trazado 207195" d="M56.716,388.057a13.6,13.6,0,1,1-13.6,13.6,13.6,13.6,0,0,1,13.6-13.6" transform="translate(-3926.583 -8367.922)" fill="#f85316"/>
      <path id="Trazado_207196" data-name="Trazado 207196" d="M143.576,278.456v17l-5.1-6.8-5.1,6.8v-17Z" transform="translate(-3969.242 -8316.124)" fill="#75b62f"/>
      <path id="Trazado_207197" data-name="Trazado 207197" d="M182.431,323.876l-3.451,4.947-.442.612,5.576,3.91,1.156-1.666,2.737-3.91Z" transform="translate(-3990.586 -8337.589)" fill="#3d46c2"/>
      <path id="Trazado_207198" data-name="Trazado 207198" d="M196.018,313.955a3.4,3.4,0,0,1-.612,1.938l-3.911,5.576-5.576-3.893L189.83,312a3.4,3.4,0,0,1,6.188,1.955" transform="translate(-3994.075 -8331.289)" fill="#3d46c2"/>
      <path id="Trazado_207199" data-name="Trazado 207199" d="M153.2,334.417l-3.417,4.879-10.439,14.909-14.417,20.6,5.559,3.893,17.171-24.5,2.125-3.043,8.993-12.836Z" transform="translate(-3965.25 -8342.571)" fill="#3d46c2"/>
      <path id="Trazado_207200" data-name="Trazado 207200" d="M126.863,414.9l-.969,1.394-8.636,6.409,3.06-10.3.986-1.394Z" transform="translate(-3961.625 -8378.77)" fill="#3d46c2"/>
      <rect id="Rectángulo_299148" data-name="Rectángulo 299148" width="10.2" height="3.4" transform="translate(-3878.368 -8029.167)"/>
      <rect id="Rectángulo_299149" data-name="Rectángulo 299149" width="13.601" height="3.4" transform="translate(-3864.768 -8029.167)"/>
      <rect id="Rectángulo_299150" data-name="Rectángulo 299150" width="27.201" height="3.4" transform="translate(-3878.368 -8022.367)"/>
      <rect id="Rectángulo_299151" data-name="Rectángulo 299151" width="30.601" height="3.4" transform="translate(-3864.768 -8012.166)"/>
      <rect id="Rectángulo_299152" data-name="Rectángulo 299152" width="34.001" height="3.4" transform="translate(-3857.968 -8005.366)"/>
      <rect id="Rectángulo_299153" data-name="Rectángulo 299153" width="6.8" height="3.4" transform="translate(-3830.766 -8012.166)"/>
      <rect id="Rectángulo_299154" data-name="Rectángulo 299154" width="23.801" height="3.4" transform="translate(-3851.167 -7998.566)"/>
      <path id="Trazado_207201" data-name="Trazado 207201" d="M116.434,296.376a5.1,5.1,0,0,0-9.2-2.04l-6.862,9.8H99.106v-23.8a5.1,5.1,0,0,0-5.1-5.1H29.4a5.1,5.1,0,0,0-5.1,5.1v1.7H19.2a5.1,5.1,0,0,0-5.1,5.1v85a5.1,5.1,0,0,0,5.1,5.1h85a5.1,5.1,0,0,0,5.1-5.1V309.166l6.291-8.98A5.064,5.064,0,0,0,116.434,296.376ZM77.7,348.37l-2.785-1.95,26.328-37.6,2.785,1.945Zm-4.66.889,2.633,1.844-4.08,3.03Zm30.147-43.224,1.956-2.785,2.785,1.949-1.95,2.786Zm-24.481-27.4h6.8v10.2l-2.04-2.72a1.761,1.761,0,0,0-2.72,0l-2.04,2.72Zm-49.3,0h45.9v15.3a1.7,1.7,0,0,0,3.06,1.02l3.74-4.986,3.74,4.986a1.7,1.7,0,0,0,1.36.68,1.74,1.74,0,0,0,.537-.087,1.7,1.7,0,0,0,1.162-1.613v-15.3h5.1a1.7,1.7,0,0,1,1.7,1.7V310.8l-9.619,13.738H62.409l-21.6-21.6a1.7,1.7,0,0,0-1.2-.5H27.7v-22.1A1.7,1.7,0,0,1,29.4,278.633Zm-10.2,6.8h5.1v17H17.5v-15.3a1.7,1.7,0,0,1,1.7-1.7m86.7,86.7a1.7,1.7,0,0,1-1.7,1.7h-85a1.7,1.7,0,0,1-1.7-1.7v-66.3H38.9l21.6,21.6a1.7,1.7,0,0,0,1.2.5h22L70.178,347.254a1.686,1.686,0,0,0-.237.492l-3.06,10.306a1.7,1.7,0,0,0,2.644,1.845l8.634-6.4a1.7,1.7,0,0,0,.381-.391l17.618-25.166h9.748Zm0-47.6h-6.8v-.809l6.8-9.712Zm6.9-26.3-2.924,4.177-2.781-1.95,2.924-4.179a1.7,1.7,0,0,1,2.781,1.952Z" transform="translate(-3912.872 -8314.6)"/>
      <path id="Trazado_207202" data-name="Trazado 207202" d="M61.286,401.128a5.109,5.109,0,0,1,3.825,1.727l2.55-2.249a8.5,8.5,0,1,0,0,11.244l-2.55-2.249a5.1,5.1,0,1,1-3.825-8.473" transform="translate(-3931.154 -8372.492)"/>
      <path id="Trazado_207203" data-name="Trazado 207203" d="M55.193,384.834a15.3,15.3,0,1,0,15.3,15.3,15.3,15.3,0,0,0-15.3-15.3m0,27.2a11.9,11.9,0,1,1,11.9-11.9,11.9,11.9,0,0,1-11.9,11.9" transform="translate(-3925.061 -8366.399)"/>
    </g>
  </g>
</svg>
