<svg xmlns="http://www.w3.org/2000/svg" width="104.249" height="105.045" viewBox="0 0 104.249 105.045">
  <g id="Grupo_151052" data-name="Grupo 151052" transform="translate(-1003.702 -2995.914)">
    <g id="Grupo_118195" data-name="Grupo 118195" transform="translate(1003.702 2995.914)">
      <g id="Grupo_118173" data-name="Grupo 118173" transform="translate(0 0)">
        <ellipse id="Elipse_6071" data-name="Elipse 6071" cx="52.124" cy="52.522" rx="52.124" ry="52.522" fill="#fff"/>
      </g>
    </g>
    <g id="Grupo_151049" data-name="Grupo 151049" transform="translate(8453.941 11611.916)">
      <g id="Grupo_151044" data-name="Grupo 151044" transform="translate(-7431.793 -8605.375)">
        <path id="Trazado_207150" data-name="Trazado 207150" d="M121.839,757.5a26.109,26.109,0,0,1,2.754.148v-9.383h-5.509v9.383a26.117,26.117,0,0,1,2.754-.148" transform="translate(-88.074 -739.344)" fill="#75b62f"/>
        <path id="Trazado_207151" data-name="Trazado 207151" d="M163.221,771.3l3.68-6.471-4.824-2.66-3.65,6.415a32.5,32.5,0,0,1,4.793,2.716" transform="translate(-111.439 -747.601)" fill="#dce736"/>
        <path id="Trazado_207152" data-name="Trazado 207152" d="M80.914,768.59l-3.649-6.415-4.825,2.659,3.681,6.471a32.457,32.457,0,0,1,4.792-2.716" transform="translate(-60.374 -747.603)" fill="#dce736"/>
        <path id="Trazado_207153" data-name="Trazado 207153" d="M110.839,802a32.513,32.513,0,1,1-32.513-32.513A32.513,32.513,0,0,1,110.839,802" transform="translate(-44.561 -751.947)" fill="#3d46c2"/>
        <path id="Trazado_207154" data-name="Trazado 207154" d="M113.391,810.077A26.992,26.992,0,1,1,86.4,783.085a26.991,26.991,0,0,1,26.992,26.992" transform="translate(-52.634 -760.02)" fill="#e4eaf8"/>
        <path id="Trazado_207155" data-name="Trazado 207155" d="M129.592,810.077h23.267a26.992,26.992,0,0,0-26.992-26.992v23.1a3.553,3.553,0,0,1,3.725,3.889" transform="translate(-92.102 -760.02)" fill="#f85316"/>
        <path id="Trazado_207156" data-name="Trazado 207156" d="M123.919,843.379a4.216,4.216,0,1,1-4.216-4.216,4.216,4.216,0,0,1,4.216,4.216" transform="translate(-85.938 -793.323)" fill="#dce736"/>
        <path id="Trazado_207157" data-name="Trazado 207157" d="M118.335,729.333H99.819a2.231,2.231,0,0,0-2.224,2.225v4.568a2.231,2.231,0,0,0,2.224,2.225h18.515a2.231,2.231,0,0,0,2.225-2.225v-4.568a2.23,2.23,0,0,0-2.224-2.225" transform="translate(-75.312 -728.1)" fill="#75b62f"/>
        <path id="Trazado_207158" data-name="Trazado 207158" d="M68.162,746.031l-6.543,3.607a.9.9,0,0,0-.352,1.218l2.721,4.936a.9.9,0,0,0,1.218.353l6.542-3.607a.9.9,0,0,0,.353-1.219l-2.721-4.937a.9.9,0,0,0-1.218-.352" transform="translate(-53.672 -737.949)" fill="#dce736"/>
        <path id="Trazado_207159" data-name="Trazado 207159" d="M167.4,746.031l6.542,3.607a.9.9,0,0,1,.353,1.218l-2.722,4.936a.9.9,0,0,1-1.218.353l-6.542-3.607a.9.9,0,0,1-.353-1.219l2.722-4.937a.9.9,0,0,1,1.218-.352" transform="translate(-114.362 -737.949)" fill="#dce736"/>
        <path id="Trazado_207160" data-name="Trazado 207160" d="M84.545,780.047a28.219,28.219,0,1,0,28.22,28.219,28.247,28.247,0,0,0-28.22-28.219m25.735,26.992H89.849a5.473,5.473,0,0,0-4.077-4.077v-20.43a25.569,25.569,0,0,1,10.574,2.838l-1.089,1.886a1.228,1.228,0,0,0,2.127,1.227l1.086-1.882a25.927,25.927,0,0,1,7.74,7.74l-1.882,1.087a1.227,1.227,0,1,0,1.227,2.125l1.885-1.088a25.553,25.553,0,0,1,2.839,10.575m-25.735-1.761a2.989,2.989,0,1,1-2.988,2.988,2.992,2.992,0,0,1,2.988-2.988m13.927,24.655-1.087-1.883a1.228,1.228,0,1,0-2.127,1.227l1.09,1.887A25.575,25.575,0,0,1,85.772,834v-2.182a1.227,1.227,0,1,0-2.455,0V834a25.582,25.582,0,0,1-10.576-2.837l1.089-1.887a1.227,1.227,0,1,0-2.126-1.227l-1.087,1.883a25.961,25.961,0,0,1-7.74-7.74l1.883-1.087a1.227,1.227,0,1,0-1.227-2.126l-1.887,1.089a25.585,25.585,0,0,1-2.837-10.576h2.182a1.227,1.227,0,1,0,0-2.455H58.811a25.579,25.579,0,0,1,2.837-10.575l1.887,1.088a1.227,1.227,0,1,0,1.227-2.125l-1.883-1.088a25.967,25.967,0,0,1,7.74-7.74l1.087,1.883a1.228,1.228,0,1,0,2.126-1.227l-1.089-1.886a25.582,25.582,0,0,1,10.576-2.837v20.432a5.443,5.443,0,1,0,6.53,6.53H110.28a25.579,25.579,0,0,1-2.837,10.575l-1.887-1.088a1.227,1.227,0,1,0-1.227,2.125l1.883,1.088a25.961,25.961,0,0,1-7.74,7.74" transform="translate(-50.804 -758.216)"/>
        <path id="Trazado_207161" data-name="Trazado 207161" d="M108.965,774.7a1.228,1.228,0,0,0,1.116-1.33,33.767,33.767,0,0,0-13.66-24.241l1.912-3.469a2.124,2.124,0,0,0,2.663-.94l2.721-4.937a2.124,2.124,0,0,0-.835-2.886L96.34,733.3a2.127,2.127,0,0,0-2.886.835l-2.721,4.937a2.121,2.121,0,0,0,.626,2.754l-1.869,3.389a33.611,33.611,0,0,0-9.036-2.371v-5.071h5.275a3.456,3.456,0,0,0,3.453-3.452v-4.568a3.456,3.456,0,0,0-3.452-3.452H79.336a1.227,1.227,0,0,0,0,2.455H85.73a1,1,0,0,1,1,1v4.568a1,1,0,0,1-1,1H67.214a1,1,0,0,1-1-1v-4.568a1,1,0,0,1,1-1h6.394a1.227,1.227,0,0,0,0-2.455H67.214a3.456,3.456,0,0,0-3.452,3.452v4.568a3.456,3.456,0,0,0,3.452,3.452H72.49v5.073a33.476,33.476,0,0,0-9.033,2.376l-1.872-3.4a2.128,2.128,0,0,0,.627-2.754L59.49,734.13A2.127,2.127,0,0,0,56.6,733.3h0L50.061,736.9a2.124,2.124,0,0,0-.835,2.886l2.722,4.936a2.122,2.122,0,0,0,2.663.941l1.919,3.481a33.734,33.734,0,1,0,53.551,30.169,1.228,1.228,0,1,0-2.446-.214,31.284,31.284,0,1,1,0-5.514,1.228,1.228,0,0,0,1.33,1.116M59.442,743.019l1.777,3.224c-.907.46-1.8.963-2.657,1.5l-1.794-3.254Zm-7.906-4.126L57.5,735.6l2.4,4.358-5.964,3.287ZM95.444,735.6l5.963,3.288L99,743.25l-5.963-3.287Zm-3.72,10.638,1.777-3.224,2.674,1.474-1.794,3.253q-1.282-.805-2.629-1.489l-.028-.015m-16.78-3.6v-4.872H78v4.872c-1.026-.046-2.017-.047-3.054,0" transform="translate(-42.731 -726.295)"/>
      </g>
    </g>
  </g>
</svg>
