<svg xmlns="http://www.w3.org/2000/svg" width="150" height="150" viewBox="0 0 150 150">
  <g id="Grupo_151061" data-name="Grupo 151061" transform="translate(-1145.449 -3556.976)">
    <circle id="Elipse_5677" data-name="Elipse 5677" cx="75" cy="75" r="75" transform="translate(1145.449 3556.976)" fill="#fff"/>
    <g id="Grupo_151058" data-name="Grupo 151058" transform="translate(5073 11457)">
      <path id="Trazado_207185" data-name="Trazado 207185" d="M60.184,577.7l-11.9.017-.033-20.046a1.015,1.015,0,0,1,1.014-1.017l9.865-.014a1.015,1.015,0,0,1,1.017,1.014Z" transform="translate(-3927.093 -8431.77)" fill="#dce736"/>
      <path id="Trazado_207186" data-name="Trazado 207186" d="M79.665,556.015,47.8,586.033l.064,45.634a2.179,2.179,0,0,0,2.182,2.177l59.454-.083a2.18,2.18,0,0,0,2.176-2.183l-.064-45.634Z" transform="translate(-3926.903 -8431.511)" fill="#fff"/>
      <path id="Trazado_207187" data-name="Trazado 207187" d="M111.722,589.406a4.367,4.367,0,0,1-3-1.184L68.534,550.576,28.452,588.334a4.382,4.382,0,1,1-6.009-6.379l43.078-40.581a4.382,4.382,0,0,1,6-.008l43.191,40.46a4.382,4.382,0,0,1-2.99,7.58" transform="translate(-3915.771 -8424.918)" fill="#f85316"/>
      <path id="Trazado_207188" data-name="Trazado 207188" d="M103.844,620.474l-16.381.023a1.392,1.392,0,0,0-1.39,1.394l.054,38.763,19.165-.027-.054-38.763a1.392,1.392,0,0,0-1.394-1.39" transform="translate(-3942.839 -8458.35)" fill="#75b62f"/>
      <path id="Trazado_207189" data-name="Trazado 207189" d="M114.86,651.035,90.716,667.193l-7.2-.4-.282-2.832a9.193,9.193,0,0,0-7.86-8.193L56.1,653.544a34.553,34.553,0,0,1-12.606-4.388,34.548,34.548,0,0,0-17.446-4.729h-13.9v31.728l36.737,13.912a10,10,0,0,0,4.272.284l.026,0,36.985-5.331a16.362,16.362,0,0,0,7.763-3.479l23.9-21.5a5.707,5.707,0,0,0-6.973-9" transform="translate(-3912.057 -8468.323)" fill="#fed9a8"/>
      <path id="Trazado_207190" data-name="Trazado 207190" d="M13,681.723H7.5a4.556,4.556,0,0,1-4.556-4.556v-40.7A4.556,4.556,0,0,1,7.5,631.913H13a4.556,4.556,0,0,1,4.556,4.556v40.7A4.556,4.556,0,0,1,13,681.723" transform="translate(-3908.226 -8463.112)" fill="#3d46c2"/>
      <path id="Trazado_207191" data-name="Trazado 207191" d="M119.126,606.966a7.442,7.442,0,0,0-10.278-1.987L93.481,615.262l-.044-32.009,5.338,5a6.077,6.077,0,0,0,4.169,1.649h.009a6.123,6.123,0,0,0,4.444-1.93,6.1,6.1,0,0,0-.281-8.622L97,569.869a1.719,1.719,0,0,0-2.35,2.508l10.121,9.481a2.663,2.663,0,0,1-1.818,4.607h0a2.653,2.653,0,0,1-1.82-.72l-8.237-7.716h0L60.938,548.1a1.718,1.718,0,0,0-2.353,0L26.721,578.119h0L18.5,585.861a2.663,2.663,0,0,1-3.652-3.878L57.928,541.4a2.667,2.667,0,0,1,3.647-.005l25.2,23.609a1.719,1.719,0,0,0,2.35-2.508l-25.2-23.609a6.11,6.11,0,0,0-8.354.012l-13.79,12.991,0-2.318a2.735,2.735,0,0,0-2.734-2.73h0l-9.865.014a2.735,2.735,0,0,0-2.73,2.738l.027,16.717L12.494,579.482a6.1,6.1,0,0,0,4,10.539l.187,0a6.057,6.057,0,0,0,4.178-1.66l5.326-5.017.022,15.119a36.3,36.3,0,0,0-5.219-.382h-2.94v-1.031a6.281,6.281,0,0,0-6.275-6.274h-5.5A6.281,6.281,0,0,0,0,597.051v26.931a1.718,1.718,0,1,0,3.437,0V597.051a2.84,2.84,0,0,1,2.838-2.837h5.5a2.84,2.84,0,0,1,2.838,2.837v40.7a2.84,2.84,0,0,1-2.838,2.837h-5.5a2.84,2.84,0,0,1-2.838-2.837v-3.007a1.718,1.718,0,1,0-3.437,0v3.007a6.282,6.282,0,0,0,6.275,6.275h5.5a6.282,6.282,0,0,0,6.275-6.275v-.233l25.169,9.531c.047.018.094.033.142.046a11.991,11.991,0,0,0,3.268.464,11.089,11.089,0,0,0,1.739-.136l36.988-5.332.026,0a18.112,18.112,0,0,0,8.579-3.844q.032-.026.063-.054l23.9-21.491a7.443,7.443,0,0,0,1.209-9.73M38.341,550.283l.008,4.842L29.9,563.081l-.021-12.787Zm-8.7,48.848-.027-19.02,30.147-28.4,30.228,28.318.053,37.531-4.866,3.257-5.153-.289-.137-1.369a10.882,10.882,0,0,0-8.743-9.623l-.031-22.328a3.114,3.114,0,0,0-3.111-3.106h0l-16.381.023a3.109,3.109,0,0,0-3.106,3.114l.027,19.468a32.661,32.661,0,0,1-9.239-3.662q-.542-.317-1.094-.614c-.144-.077-.289-.15-.434-.225-.224-.117-.448-.235-.674-.347-.18-.089-.362-.174-.544-.26s-.385-.184-.579-.272-.4-.175-.6-.261c-.182-.078-.364-.158-.547-.233-.2-.085-.41-.166-.616-.246-.183-.071-.365-.142-.549-.211q-.306-.114-.614-.222-.289-.1-.579-.2t-.592-.192c-.211-.067-.423-.13-.635-.193-.183-.053-.364-.107-.547-.158-.239-.067-.48-.129-.72-.191-.113-.029-.225-.061-.338-.089m22.308-11.57,15.727-.022.03,21.567L53.336,607.45l-1.354-.156Zm63.673,26.572L91.754,635.6a14.667,14.667,0,0,1-6.9,3.086l-36.972,5.329-.023,0-.026,0a8.193,8.193,0,0,1-3.467-.221l-26.313-9.965V601.519h2.94a32.813,32.813,0,0,1,7.411.85l.27.064c.3.071.594.145.889.225l.078.022q.444.122.885.256l.158.048c.313.1.624.2.934.3l.1.033q.967.334,1.914.728l.1.043q.472.2.937.411l.025.012q.45.207.894.428l.1.052c.289.144.576.294.861.448l.162.088c.288.157.574.317.857.483A36.106,36.106,0,0,0,50.8,610.618l.044.005L70.1,612.841q.16.023.317.052a7.456,7.456,0,0,1,5.821,5.355,7.551,7.551,0,0,1,.232,1.251l.076.769-36.089-3.161a1.719,1.719,0,1,0-.3,3.424l38.154,3.342h.027l.027,0,7.2.4.1,0c.034,0,.068-.006.1-.008s.076,0,.114-.009.1-.018.152-.029.072-.014.107-.024a1.629,1.629,0,0,0,.162-.058c.029-.012.058-.021.086-.033a1.686,1.686,0,0,0,.232-.13l6.108-4.087h0l18.038-12.072a3.989,3.989,0,0,1,4.865,6.3" transform="translate(-3907 -8423.695)"/>
    </g>
  </g>
</svg>
