<svg xmlns="http://www.w3.org/2000/svg" width="104.249" height="105.045" viewBox="0 0 104.249 105.045">
  <g id="Grupo_151054" data-name="Grupo 151054" transform="translate(-498.07 -2995.914)">
    <g id="Grupo_118193" data-name="Grupo 118193" transform="translate(498.07 2995.914)">
      <g id="Grupo_118173" data-name="Grupo 118173" transform="translate(0 0)">
        <ellipse id="Elipse_6071" data-name="Elipse 6071" cx="52.124" cy="52.522" rx="52.124" ry="52.522" fill="#fff"/>
      </g>
    </g>
    <g id="Grupo_151047" data-name="Grupo 151047" transform="translate(7958.682 11880.926)">
      <g id="Grupo_151042" data-name="Grupo 151042" transform="translate(-7439.826 -8870.977)">
        <path id="Trazado_207122" data-name="Trazado 207122" d="M97.18,246.53c-2.031-3.578-7.409-6.26-17.882-6.26-12.506,0-19.719,2.206-22.793,3.419a.658.658,0,0,0-.228,1.072c.924.949,1.846,1.881,2.414,2.453a.657.657,0,0,1-.1,1.011l-2.616,1.748a.658.658,0,0,0,.019,1.107,17.578,17.578,0,0,1,3.934,3.082c.328,3.415,2.358,17.688,2.358,17.688l25.391.643v.526h15.6v-19.79a6.729,6.729,0,0,0-6.09-6.7" transform="translate(-45.504 -239.161)" fill="#dce736"/>
        <path id="Trazado_207123" data-name="Trazado 207123" d="M94.82,382.555H97.4c4.633-6.606,21.945-2.687,16.306,19.429H78.514c-5.639-22.116,11.673-26.035,16.306-19.429" transform="translate(-59.254 -327.412)" fill="#f85316"/>
        <path id="Trazado_207124" data-name="Trazado 207124" d="M115.673,374.667h-8.067c-7.084,0-6.368,6.416-5.515,9.754a1.642,1.642,0,0,0,2.362,1.042l5.811-3.083h2.751l5.812,3.083a1.643,1.643,0,0,0,2.362-1.042c.852-3.339,1.569-9.754-5.516-9.754" transform="translate(-74.557 -324.258)" fill="#ebeef2"/>
        <path id="Trazado_207125" data-name="Trazado 207125" d="M119.233,378.387h0c1.838-.393,5.316-2.38,5.316-5.316v-6.579H113.917v6.579c0,2.936,3.478,4.923,5.316,5.316" transform="translate(-82.378 -319.081)" fill="#f6bb93"/>
        <path id="Trazado_207126" data-name="Trazado 207126" d="M113.918,371.5a33.928,33.928,0,0,0,10.632.631v-5.643H113.918Z" transform="translate(-82.378 -319.081)" fill="#e49775"/>
        <path id="Trazado_207127" data-name="Trazado 207127" d="M69.916,321.294h5.94v-8.983h-5.94a4.492,4.492,0,0,0,0,8.983" transform="translate(-51.674 -284.775)" fill="#f6bb93"/>
        <path id="Trazado_207128" data-name="Trazado 207128" d="M168.025,314.923h-5.334v10.605h5.334a5.27,5.27,0,0,0,5.271-5.27v-.064a5.271,5.271,0,0,0-5.271-5.271" transform="translate(-113.26 -286.43)" fill="#75b62f"/>
        <path id="Trazado_207129" data-name="Trazado 207129" d="M82.746,303.543c0,11.83,33.5,11.83,33.5,0,0-6.778-.906-18.255-2.881-22.716a6.522,6.522,0,0,0-2.323-2.645,4.283,4.283,0,0,0-2.2-.661,5.856,5.856,0,0,0-2.489.661,14.067,14.067,0,0,1-13.714,0,5.856,5.856,0,0,0-2.49-.661,4.282,4.282,0,0,0-2.2.661,6.53,6.53,0,0,0-2.328,2.65c-1.967,4.436-2.877,15.8-2.877,22.711" transform="translate(-62.641 -262.747)" fill="#f6bb93"/>
        <path id="Trazado_207130" data-name="Trazado 207130" d="M140.441,280.827a6.52,6.52,0,0,0-2.323-2.645,4.286,4.286,0,0,0-2.2-.66,5.024,5.024,0,0,0-1.731.341,4.5,4.5,0,0,1,.551.319,6.329,6.329,0,0,1,2.046,2.645c1.739,4.461,2.537,15.938,2.537,22.716,0,5.664-6.764,8.616-13.813,8.856,8.714.261,17.814-2.69,17.814-8.856,0-6.778-.906-18.255-2.881-22.716" transform="translate(-89.717 -262.748)" fill="#e49775"/>
        <path id="Trazado_207131" data-name="Trazado 207131" d="M170.24,366.793l-1.513.873a1.837,1.837,0,0,0,1.837,3.181l1.513-.873a1.837,1.837,0,0,0-1.837-3.181" transform="translate(-116.5 -319.116)" fill="#75b62f"/>
        <path id="Trazado_207132" data-name="Trazado 207132" d="M30.96,360.246v18.173a2.555,2.555,0,0,0,2.555,2.555H61.17a2.555,2.555,0,0,0,2.555-2.555V360.246a2.555,2.555,0,0,0-2.555-2.555H33.515a2.555,2.555,0,0,0-2.555,2.555" transform="translate(-29.852 -313.509)" fill="#3d46c2"/>
        <path id="Trazado_207133" data-name="Trazado 207133" d="M73.478,415h-5.9l.771-11.046a.739.739,0,0,1,.737-.688H71.97a.739.739,0,0,1,.737.688Z" transform="translate(-53.039 -342.363)" fill="#3d46c2"/>
        <path id="Trazado_207134" data-name="Trazado 207134" d="M55.076,433.1v-.921a2.217,2.217,0,0,1,2.217-2.217H67.931a2.217,2.217,0,0,1,2.217,2.217v.921a.739.739,0,0,1-.739.739H55.815a.739.739,0,0,1-.739-.739" transform="translate(-45.121 -359.271)" fill="#3d46c2"/>
        <path id="Trazado_207135" data-name="Trazado 207135" d="M70.379,375.091a3.036,3.036,0,1,1-3.036,3.036,3.036,3.036,0,0,1,3.036-3.036" transform="translate(-52.889 -324.526)" fill="#e0f7fc"/>
        <path id="Trazado_207136" data-name="Trazado 207136" d="M129.032,389.011a1.109,1.109,0,0,0-.244,1.549c1.894,2.6,3.683,7.495,1.671,16.109h-2.783v-4.533a1.109,1.109,0,1,0-2.217,0v4.533h-19.12a1.109,1.109,0,1,0,0,2.217h24.99a1.109,1.109,0,0,0,1.074-.835c2.542-9.97.412-15.724-1.822-18.8a1.109,1.109,0,0,0-1.549-.244" transform="translate(-76.877 -333.205)"/>
        <path id="Trazado_207137" data-name="Trazado 207137" d="M89.084,271.077v-.064a6.369,6.369,0,0,0-2.269-4.876V251.315a7.8,7.8,0,0,0-6.53-7.729A12.367,12.367,0,0,0,73.937,239a1.109,1.109,0,1,0-.762,2.082,9.885,9.885,0,0,1,5.477,4.085,1.109,1.109,0,0,0,.86.556,5.593,5.593,0,0,1,5.085,5.6v13.6a8.529,8.529,0,0,0-2.774-.286c-.4-3.309-1.082-7.352-2.147-9.755a7.606,7.606,0,0,0-2.767-3.147,5.363,5.363,0,0,0-2.768-.818,6.839,6.839,0,0,0-2.964.767,14.593,14.593,0,0,1-6.382,1.678,14.583,14.583,0,0,1-6.381-1.677,6.831,6.831,0,0,0-2.965-.768,5.356,5.356,0,0,0-2.767.817,7.612,7.612,0,0,0-2.774,3.152,35.485,35.485,0,0,0-2.03,8.792h-1.7a5.62,5.62,0,0,0-1.2.13c-.551-3.981-1.325-9.682-1.515-11.662a1.109,1.109,0,0,0-.238-.587,16.262,16.262,0,0,0-3.626-2.961l2.041-1.363a1.768,1.768,0,0,0,.272-2.713c-.5-.5-1.2-1.206-1.928-1.955,3.43-1.258,10.392-3.1,21.748-3.1a43.864,43.864,0,0,1,7.3.55,1.109,1.109,0,1,0,.373-2.186,46.111,46.111,0,0,0-7.674-.582c-12.479,0-19.891,2.19-23.2,3.5a1.766,1.766,0,0,0-.617,2.877c.73.75,1.463,1.492,2.036,2.071l-2.164,1.445a1.767,1.767,0,0,0,.055,2.973,17.9,17.9,0,0,1,3.447,2.6c.254,2.4,1.052,8.252,1.58,12.051a5.6,5.6,0,0,0,3.308,10.117h.809c-.038,1.151-.055,2.221-.055,3.168a6.93,6.93,0,0,0,.377,2.278H31.6a3.668,3.668,0,0,0-3.663,3.664v18.172a3.668,3.668,0,0,0,3.663,3.664H41.654l-.071,1.013H40.111a3.33,3.33,0,0,0-3.326,3.326v.921a1.85,1.85,0,0,0,1.848,1.848H52.227a1.85,1.85,0,0,0,1.848-1.848v-.921a3.329,3.329,0,0,0-3.326-3.326H49.277l-.071-1.013H59.258a3.668,3.668,0,0,0,3.663-3.664v-5.087a7.95,7.95,0,0,0,1.642.567,1.1,1.1,0,0,0,.233.025,1.119,1.119,0,0,0,.232-.025,8.446,8.446,0,0,0,1.941-.711l4.721,2.506a2.751,2.751,0,0,0,3.954-1.745,13.766,13.766,0,0,0,.324-6.288,9.459,9.459,0,0,1,.941.492,1.109,1.109,0,1,0,1.135-1.9,11.406,11.406,0,0,0-3.467-1.365,5.67,5.67,0,0,0-2.059-1.453,17.236,17.236,0,0,0,7.571-3.621,7.289,7.289,0,0,0,2.566-5.5q0-.29,0-.587h.054A6.349,6.349,0,0,0,84.8,277.1l.913,5.479a1.146,1.146,0,0,1-.554,1.175l-.752.434a2.951,2.951,0,0,0-3.281-.226l-1.513.873a2.945,2.945,0,0,0,1.478,5.5c1.194,0,1.78-.654,2.981-1.267a2.947,2.947,0,0,0,1.446-2.956l.75-.433a3.374,3.374,0,0,0,1.633-3.459l-1.05-6.3a6.367,6.367,0,0,0,2.235-4.846M83.3,286.7a.723.723,0,0,1-.339.442l-1.513.873a.728.728,0,0,1-.728-1.261l1.513-.873a.728.728,0,0,1,1.067.819M46.182,272.658a3.383,3.383,0,1,1,0-6.767h1.43c-.246,2.279-.418,4.608-.528,6.767Zm5.675,37.5v.551H39v-.551a1.11,1.11,0,0,1,1.109-1.109H50.749a1.11,1.11,0,0,1,1.109,1.109m-8.052-3.326.529-7.578h2.191l.529,7.578Zm15.452-3.23H49.051l-.338-4.846a1.852,1.852,0,0,0-1.842-1.719H43.989a1.852,1.852,0,0,0-1.842,1.719l-.338,4.847H31.6a1.448,1.448,0,0,1-1.446-1.447V283.985a1.448,1.448,0,0,1,1.446-1.447H59.258a1.448,1.448,0,0,1,1.445,1.447v18.172a1.448,1.448,0,0,1-1.445,1.447m5.539-8.192a7.453,7.453,0,0,1-1.876-.862v-6.575q.993.053,1.971.052A35.1,35.1,0,0,0,69,287.79v3.448c0,1.968-2.4,3.679-4.2,4.174m8.286-5.12,0,.006c.029.038.058.077.085.117,1.3,1.865.761,5.013.324,6.723a.522.522,0,0,1-.3.353.527.527,0,0,1-.468-.016l-3.672-1.949a5.723,5.723,0,0,0,2.162-4.287v-2.186a3.6,3.6,0,0,1,1.864,1.24m5.505-8.378c-1.825,1.676-4.9,2.89-8.532,3.485a1.091,1.091,0,0,0-.241.039,33.235,33.235,0,0,1-6.895.318v-1.77a3.668,3.668,0,0,0-3.663-3.664H49.73a4.739,4.739,0,0,1-.576-2.278c0-1.255.031-2.678.094-4.187,0-.028,0-.055,0-.083.118-2.785.345-5.864.69-8.745a1.088,1.088,0,0,0,.027-.223,36.084,36.084,0,0,1,1.967-9.024,5.425,5.425,0,0,1,1.884-2.147,3.184,3.184,0,0,1,1.629-.5,4.747,4.747,0,0,1,2.016.555,16.845,16.845,0,0,0,7.33,1.89,16.846,16.846,0,0,0,7.33-1.891,4.757,4.757,0,0,1,2.016-.554,3.19,3.19,0,0,1,1.631.5,5.423,5.423,0,0,1,1.877,2.142,42.839,42.839,0,0,1,2.079,10.015,1.1,1.1,0,0,0,.019.164c.354,3.024.612,6.531.674,10.329,0,.021,0,.043,0,.064s0,.066,0,.1q.012.79.012,1.6a5.156,5.156,0,0,1-1.848,3.871m8.278-10.837a4.166,4.166,0,0,1-4.161,4.162h-.1c-.081-2.713-.27-5.657-.541-8.388h.637a4.166,4.166,0,0,1,4.161,4.162Z" transform="translate(-27.939 -237.248)"/>
        <path id="Trazado_207138" data-name="Trazado 207138" d="M144.179,318.344a1.109,1.109,0,0,0-1.109,1.109v1.709a1.109,1.109,0,0,0,2.217,0v-1.709a1.109,1.109,0,0,0-1.109-1.109" transform="translate(-100.836 -288.595)"/>
        <path id="Trazado_207139" data-name="Trazado 207139" d="M142.91,308.142a5.089,5.089,0,0,0-6.692,0,1.109,1.109,0,0,0,1.346,1.762,2.919,2.919,0,0,1,4,0,1.108,1.108,0,1,0,1.346-1.762" transform="translate(-96.222 -281.342)"/>
        <path id="Trazado_207140" data-name="Trazado 207140" d="M106.938,318.344a1.109,1.109,0,0,0-1.109,1.109v1.709a1.109,1.109,0,0,0,2.217,0v-1.709a1.109,1.109,0,0,0-1.109-1.109" transform="translate(-77.256 -288.595)"/>
        <path id="Trazado_207141" data-name="Trazado 207141" d="M104.324,309.9a1.109,1.109,0,1,0,1.346-1.762,5.089,5.089,0,0,0-6.692,0,1.109,1.109,0,1,0,1.346,1.762,2.919,2.919,0,0,1,4,0" transform="translate(-72.643 -281.343)"/>
        <path id="Trazado_207142" data-name="Trazado 207142" d="M121.468,342.562a5.708,5.708,0,0,1-7.716,0,1.109,1.109,0,1,0-1.492,1.64,7.917,7.917,0,0,0,10.7,0,1.109,1.109,0,0,0-1.492-1.64" transform="translate(-81.098 -303.747)"/>
        <path id="Trazado_207143" data-name="Trazado 207143" d="M126.495,409.786a1.109,1.109,0,0,0,1.109-1.109v-.5a1.109,1.109,0,0,0-2.217,0v.5a1.109,1.109,0,0,0,1.109,1.109" transform="translate(-89.64 -344.773)"/>
        <path id="Trazado_207144" data-name="Trazado 207144" d="M125.386,423.742a1.109,1.109,0,1,0,2.217,0v-.5a1.109,1.109,0,0,0-2.217,0Z" transform="translate(-89.64 -354.311)"/>
        <path id="Trazado_207145" data-name="Trazado 207145" d="M68.466,372.069a4.145,4.145,0,1,0,4.145,4.145,4.15,4.15,0,0,0-4.145-4.145m0,6.072a1.928,1.928,0,1,1,1.927-1.927,1.93,1.93,0,0,1-1.927,1.927" transform="translate(-50.975 -322.612)"/>
      </g>
    </g>
  </g>
</svg>
