<svg xmlns="http://www.w3.org/2000/svg" xmlns:xlink="http://www.w3.org/1999/xlink" width="78.934" height="69.068" viewBox="0 0 78.934 69.068">
  <defs>
    <clipPath id="clip-path">
      <rect id="Rectángulo_299244" data-name="Rectángulo 299244" width="57.357" height="23.433" fill="none"/>
    </clipPath>
    <clipPath id="clip-path-2">
      <rect id="Rectángulo_299245" data-name="Rectángulo 299245" width="31.198" height="18.846" fill="none"/>
    </clipPath>
    <clipPath id="clip-path-3">
      <rect id="Rectángulo_299246" data-name="Rectángulo 299246" width="31.075" height="17.425" fill="none"/>
    </clipPath>
    <clipPath id="clip-path-4">
      <rect id="Rectángulo_299247" data-name="Rectángulo 299247" width="24.667" height="46.867" fill="none"/>
    </clipPath>
    <clipPath id="clip-path-5">
      <rect id="Rectángulo_299248" data-name="Rectángulo 299248" width="22.2" height="46.867" fill="none"/>
    </clipPath>
    <clipPath id="clip-path-6">
      <rect id="Rectángulo_299249" data-name="Rectángulo 299249" width="22.2" height="41.934" fill="none"/>
    </clipPath>
    <clipPath id="clip-path-7">
      <rect id="Rectángulo_299250" data-name="Rectángulo 299250" width="19.734" height="41.934" fill="none"/>
    </clipPath>
  </defs>
  <g id="Grupo_151299" data-name="Grupo 151299" transform="translate(-1510.21 -349.699)">
    <path id="Trazado_207404" data-name="Trazado 207404" d="M209.629,28.378H167.222a3.463,3.463,0,0,0-3.463,3.463v3.937l23.9,7.4,25.431-7.4V31.841a3.463,3.463,0,0,0-3.463-3.463" transform="translate(1371.118 321.321)" fill="#0364b8"/>
    <path id="Trazado_207405" data-name="Trazado 207405" d="M217.357,65.694a27.962,27.962,0,0,0,.863-3.466,1.639,1.639,0,0,0-.822-1.42l-.032-.02-.009-.005L190.623,45.553a3.927,3.927,0,0,0-.358-.2,3.7,3.7,0,0,0-3.29,0,3.539,3.539,0,0,0-.357.2L159.883,60.786l-.009,0-.029.018a1.642,1.642,0,0,0-.825,1.42,28.333,28.333,0,0,0,.863,3.466l28.347,20.732Z" transform="translate(1370.923 322.005)" fill="#0a2767"/>
    <path id="Trazado_207406" data-name="Trazado 207406" d="M197.806,35.485H180.539l-4.984,7.4,4.984,7.4,17.267,14.8h14.8v-14.8Z" transform="translate(1371.603 321.615)" fill="#28a8ea"/>
    <rect id="Rectángulo_299239" data-name="Rectángulo 299239" width="17.267" height="14.799" transform="translate(1534.876 357.1)" fill="#0078d4"/>
    <rect id="Rectángulo_299240" data-name="Rectángulo 299240" width="14.799" height="14.799" transform="translate(1569.409 357.1)" fill="#50d9ff"/>
    <path id="Trazado_207407" data-name="Trazado 207407" d="M198.292,64.5,181.025,49.7H163.759V64.5l17.266,14.8,26.719,4.362Z" transform="translate(1371.119 322.2)" fill="#0364b8"/>
    <rect id="Rectángulo_299241" data-name="Rectángulo 299241" width="17.267" height="14.799" transform="translate(1552.143 371.901)" fill="#0078d4"/>
    <rect id="Rectángulo_299242" data-name="Rectángulo 299242" width="17.267" height="14.799" transform="translate(1534.876 386.7)" fill="#064a8c"/>
    <rect id="Rectángulo_299243" data-name="Rectángulo 299243" width="14.799" height="14.799" transform="translate(1569.409 386.7)" fill="#0078d4"/>
    <g id="Grupo_151247" data-name="Grupo 151247" transform="translate(1530.923 383.538)" opacity="0.5" style="isolation: isolate">
      <g id="Grupo_151246" data-name="Grupo 151246" transform="translate(0 0)">
        <g id="Grupo_151245" data-name="Grupo 151245" clip-path="url(#clip-path)">
          <path id="Trazado_207408" data-name="Trazado 207408" d="M189.051,84.31,159.96,63.1l1.221-2.146s26.5,15.1,26.909,15.323a1.306,1.306,0,0,0,1.037-.03l26.968-15.367,1.223,2.143Z" transform="translate(-159.961 -60.877)" fill="#0a2767"/>
        </g>
      </g>
    </g>
    <path id="Trazado_207409" data-name="Trazado 207409" d="M216.291,62.968l-.034.02-.007.005L189.515,78.222a3.691,3.691,0,0,1-3.6.225l9.309,12.484,20.359,4.432v.01a3.7,3.7,0,0,0,1.53-2.994V61.545a1.644,1.644,0,0,1-.822,1.423" transform="translate(1372.031 322.689)" fill="#1490df"/>
    <g id="Grupo_151250" data-name="Grupo 151250" transform="translate(1557.945 399.216)" opacity="0.05" style="isolation: isolate">
      <g id="Grupo_151249" data-name="Grupo 151249" transform="translate(0 0)">
        <g id="Grupo_151248" data-name="Grupo 151248" clip-path="url(#clip-path-2)">
          <path id="Trazado_207410" data-name="Trazado 207410" d="M217.112,91.786v-1.82L192.488,75.935l-2.973,1.7a3.694,3.694,0,0,1-3.6.224l9.309,12.484,20.359,4.433v.009a3.694,3.694,0,0,0,1.53-2.994" transform="translate(-185.914 -75.935)"/>
        </g>
      </g>
    </g>
    <g id="Grupo_151253" data-name="Grupo 151253" transform="translate(1557.945 400.636)" opacity="0.1" style="isolation: isolate">
      <g id="Grupo_151252" data-name="Grupo 151252" transform="translate(0 0)">
        <g id="Grupo_151251" data-name="Grupo 151251" clip-path="url(#clip-path-3)">
          <path id="Trazado_207411" data-name="Trazado 207411" d="M216.989,92.674,190,77.3l-.481.271a3.691,3.691,0,0,1-3.6.227l9.309,12.484,20.36,4.432v.01a3.7,3.7,0,0,0,1.406-2.048Z" transform="translate(-185.914 -77.299)"/>
        </g>
      </g>
    </g>
    <path id="Trazado_207412" data-name="Trazado 207412" d="M159.884,63v-.025h-.025l-.074-.049a1.6,1.6,0,0,1-.764-1.382V92.379a3.694,3.694,0,0,0,3.69,3.7h51.81a3.7,3.7,0,0,0,.913-.123,1.589,1.589,0,0,0,.444-.148.342.342,0,0,0,.148-.05,2.543,2.543,0,0,0,.567-.321c.049-.024.074-.024.1-.074Z" transform="translate(1370.922 322.689)" fill="#28a8ea"/>
    <g id="Grupo_151256" data-name="Grupo 151256" transform="translate(1529.943 362.032)" opacity="0.1" style="isolation: isolate">
      <g id="Grupo_151255" data-name="Grupo 151255" transform="translate(0 0)">
        <g id="Grupo_151254" data-name="Grupo 151254" clip-path="url(#clip-path-4)">
          <path id="Trazado_207413" data-name="Trazado 207413" d="M183.687,83.8V43.511a3.3,3.3,0,0,0-3.288-3.287H164.027V58.615l-4.144,2.364-.011.005-.03.017a1.644,1.644,0,0,0-.822,1.423V87.09H180.4a3.3,3.3,0,0,0,3.288-3.288" transform="translate(-159.02 -40.223)"/>
        </g>
      </g>
    </g>
    <g id="Grupo_151259" data-name="Grupo 151259" transform="translate(1529.943 364.5)" opacity="0.2" style="isolation: isolate">
      <g id="Grupo_151258" data-name="Grupo 151258" transform="translate(0 0)">
        <g id="Grupo_151257" data-name="Grupo 151257" clip-path="url(#clip-path-5)">
          <path id="Trazado_207414" data-name="Trazado 207414" d="M181.22,86.171V45.88a3.3,3.3,0,0,0-3.288-3.287h-13.9V58.517l-4.145,2.364-.011.005-.03.017a1.644,1.644,0,0,0-.822,1.423V89.459h18.912a3.3,3.3,0,0,0,3.288-3.288" transform="translate(-159.02 -42.592)"/>
        </g>
      </g>
    </g>
    <g id="Grupo_151262" data-name="Grupo 151262" transform="translate(1529.943 364.5)" opacity="0.2" style="isolation: isolate">
      <g id="Grupo_151261" data-name="Grupo 151261" transform="translate(0 0)">
        <g id="Grupo_151260" data-name="Grupo 151260" clip-path="url(#clip-path-6)">
          <path id="Trazado_207415" data-name="Trazado 207415" d="M181.22,81.238V45.881a3.3,3.3,0,0,0-3.288-3.288h-13.9V58.517l-4.145,2.364-.011.005-.03.017a1.644,1.644,0,0,0-.822,1.423v22.2h18.912a3.3,3.3,0,0,0,3.288-3.288" transform="translate(-159.02 -42.592)"/>
        </g>
      </g>
    </g>
    <g id="Grupo_151265" data-name="Grupo 151265" transform="translate(1529.943 364.5)" opacity="0.2" style="isolation: isolate">
      <g id="Grupo_151264" data-name="Grupo 151264" transform="translate(0 0)">
        <g id="Grupo_151263" data-name="Grupo 151263" clip-path="url(#clip-path-7)">
          <path id="Trazado_207416" data-name="Trazado 207416" d="M178.754,81.238V45.881a3.3,3.3,0,0,0-3.288-3.288H164.028V58.517l-4.144,2.364-.013.005-.03.017a1.644,1.644,0,0,0-.822,1.423v22.2h16.446a3.3,3.3,0,0,0,3.288-3.288" transform="translate(-159.02 -42.592)"/>
        </g>
      </g>
    </g>
    <path id="Trazado_207417" data-name="Trazado 207417" d="M143.356,42.592h32.89a3.288,3.288,0,0,1,3.288,3.288V78.77a3.288,3.288,0,0,1-3.288,3.288h-32.89a3.288,3.288,0,0,1-3.288-3.288V45.88a3.288,3.288,0,0,1,3.288-3.288" transform="translate(1370.142 321.908)" fill="#0078d4"/>
    <path id="Trazado_207418" data-name="Trazado 207418" d="M149.283,55.787a10.317,10.317,0,0,1,4.05-4.474,12.239,12.239,0,0,1,6.438-1.613,11.384,11.384,0,0,1,5.952,1.528,10.223,10.223,0,0,1,3.942,4.275,13.8,13.8,0,0,1,1.381,6.29,14.563,14.563,0,0,1-1.422,6.576,10.457,10.457,0,0,1-4.059,4.425,11.84,11.84,0,0,1-6.178,1.571A11.665,11.665,0,0,1,153.3,72.82a10.364,10.364,0,0,1-3.991-4.282,13.454,13.454,0,0,1-1.4-6.213,14.939,14.939,0,0,1,1.373-6.538m4.317,10.5a6.7,6.7,0,0,0,2.277,2.946,5.943,5.943,0,0,0,3.559,1.072,6.251,6.251,0,0,0,3.8-1.107,6.419,6.419,0,0,0,2.213-2.953,11.421,11.421,0,0,0,.706-4.107,12.5,12.5,0,0,0-.666-4.159,6.58,6.58,0,0,0-2.137-3.059,5.882,5.882,0,0,0-3.766-1.166,6.141,6.141,0,0,0-3.643,1.083,6.756,6.756,0,0,0-2.329,2.967,11.782,11.782,0,0,0-.017,8.485Z" transform="translate(1370.465 322.2)" fill="#fff"/>
  </g>
</svg>
