<svg xmlns="http://www.w3.org/2000/svg" xmlns:xlink="http://www.w3.org/1999/xlink" width="81.06" height="81.06" viewBox="0 0 81.06 81.06">
  <defs>
    <clipPath id="clip-path">
      <rect id="Rectángulo_299255" data-name="Rectángulo 299255" width="33.186" height="33.186" fill="none"/>
    </clipPath>
    <clipPath id="clip-path-2">
      <rect id="Rectángulo_299256" data-name="Rectángulo 299256" width="79.504" height="79.504" fill="none"/>
    </clipPath>
    <clipPath id="clip-path-3">
      <rect id="Rectángulo_299257" data-name="Rectángulo 299257" width="32.375" height="32.375" fill="none"/>
    </clipPath>
  </defs>
  <g id="Grupo_151298" data-name="Grupo 151298" transform="translate(-1488.222 -172.782)">
    <path id="Trazado_207419" data-name="Trazado 207419" d="M319.571,80.115a23.507,23.507,0,1,1-23.507,23.507,23.508,23.508,0,0,1,23.507-23.507" transform="translate(1192.158 92.667)" fill="#28a8ea"/>
    <path id="Trazado_207420" data-name="Trazado 207420" d="M350.272,110.816a23.507,23.507,0,1,1-23.507,23.507,23.508,23.508,0,0,1,23.507-23.507" transform="translate(1195.503 96.012)" fill="#28a8ea"/>
    <path id="Trazado_207421" data-name="Trazado 207421" d="M336.435,81.577a38.909,38.909,0,1,1-38.909,38.909,38.909,38.909,0,0,1,38.909-38.909" transform="translate(1192.319 92.826)" fill="#28a8ea"/>
    <path id="Trazado_207422" data-name="Trazado 207422" d="M324,118.077a11.811,11.811,0,0,1-3.707-3.916,10.823,10.823,0,0,1-1.272-5.406,9.717,9.717,0,0,1,2.29-6.545,13.783,13.783,0,0,1,5.969-3.99,23.056,23.056,0,0,1,7.814-1.315,30.48,30.48,0,0,1,5.2.4,18.726,18.726,0,0,1,3.605.93,7,7,0,0,1,2.821,1.8,3.653,3.653,0,0,1,.873,2.424,3.514,3.514,0,0,1-.916,2.525,3.052,3.052,0,0,1-2.305.96,4.138,4.138,0,0,1-1.713-.385,31.187,31.187,0,0,0-4.078-1.492,14.78,14.78,0,0,0-3.93-.486,8.972,8.972,0,0,0-4.919,1.254,4.093,4.093,0,0,0-1.964,3.678,3.7,3.7,0,0,0,1.018,2.586,9.283,9.283,0,0,0,2.748,1.965q1.73.858,5.155,2.274a5.381,5.381,0,0,1,.739.3,36.6,36.6,0,0,1,6.383,3.279,12.865,12.865,0,0,1,3.93,4.034,10.628,10.628,0,0,1,1.418,5.6A11.268,11.268,0,0,1,347.2,135.3a11.688,11.688,0,0,1-5.5,4.079,23.166,23.166,0,0,1-8.258,1.344,26.032,26.032,0,0,1-11.258-2.127,6.132,6.132,0,0,1-2.318-1.8,4.046,4.046,0,0,1-.754-2.453,3.2,3.2,0,0,1,.989-2.5,3.648,3.648,0,0,1,2.556-.9,6.532,6.532,0,0,1,2.983.768q1.713.857,2.7,1.285a13.527,13.527,0,0,0,2.334.737,13.3,13.3,0,0,0,3,.312,8.007,8.007,0,0,0,5.038-1.345,4.442,4.442,0,0,0,1.7-3.679,3.914,3.914,0,0,0-1.064-2.687,11.307,11.307,0,0,0-3.133-2.277q-2.068-1.093-5.82-2.659a35.949,35.949,0,0,1-6.4-3.323" transform="translate(1194.66 94.496)" fill="#fff" fill-rule="evenodd"/>
    <g id="Grupo_151274" data-name="Grupo 151274" transform="translate(1488.596 173.155)" opacity="0.1" style="isolation: isolate">
      <g id="Grupo_151273" data-name="Grupo 151273" transform="translate(0 0)">
        <g id="Grupo_151272" data-name="Grupo 151272" clip-path="url(#clip-path)">
          <path id="Trazado_207423" data-name="Trazado 207423" d="M326.879,81.262a22.963,22.963,0,0,0-3.145-.811A42.276,42.276,0,0,0,296.4,107.784a23.1,23.1,0,0,0,.811,3.146,17.89,17.89,0,0,0,1.087,2.707,38.821,38.821,0,0,1,31.289-31.289,17.737,17.737,0,0,0-2.707-1.087" transform="translate(-296.4 -80.451)" fill-rule="evenodd"/>
        </g>
      </g>
    </g>
    <g id="Grupo_151277" data-name="Grupo 151277" transform="translate(1489.406 173.965)" opacity="0.1" style="isolation: isolate">
      <g id="Grupo_151276" data-name="Grupo 151276" transform="translate(0 0)">
        <g id="Grupo_151275" data-name="Grupo 151275" clip-path="url(#clip-path-2)">
          <path id="Trazado_207424" data-name="Trazado 207424" d="M326.8,81.182a40.563,40.563,0,0,0-29.668,29.667,17.742,17.742,0,0,0,1.087,2.708,38.824,38.824,0,0,1,31.289-31.29,17.844,17.844,0,0,0-2.707-1.086m49.025,49.025a17.845,17.845,0,0,0-1.086-2.707,38.824,38.824,0,0,1-31.29,31.288,17.891,17.891,0,0,0,2.707,1.087,23.1,23.1,0,0,0,3.146.811,42.273,42.273,0,0,0,27.333-27.334,22.968,22.968,0,0,0-.811-3.145" transform="translate(-297.131 -81.182)" fill-rule="evenodd"/>
        </g>
      </g>
    </g>
    <g id="Grupo_151280" data-name="Grupo 151280" transform="translate(1535.724 220.283)" opacity="0.1" style="isolation: isolate">
      <g id="Grupo_151279" data-name="Grupo 151279" transform="translate(0 0)">
        <g id="Grupo_151278" data-name="Grupo 151278" clip-path="url(#clip-path-3)">
          <path id="Trazado_207425" data-name="Trazado 207425" d="M370.189,122.95a38.824,38.824,0,0,1-31.29,31.29,17.9,17.9,0,0,0,2.708,1.086,40.56,40.56,0,0,0,29.667-29.668,17.771,17.771,0,0,0-1.086-2.707" transform="translate(-338.899 -122.95)" fill-rule="evenodd"/>
        </g>
      </g>
    </g>
  </g>
</svg>
